<svg xmlns="http://www.w3.org/2000/svg" viewBox="0 0 64 64">
  <defs>
    <linearGradient id="bg" x1="8" y1="8" x2="56" y2="56" gradientUnits="userSpaceOnUse">
      <stop stop-color="#0ea5e9"/>
      <stop offset="1" stop-color="#1d4ed8"/>
    </linearGradient>
    <linearGradient id="mark" x1="20" y1="16" x2="44" y2="48" gradientUnits="userSpaceOnUse">
      <stop stop-color="#ffffff"/>
      <stop offset="1" stop-color="#dbeafe"/>
    </linearGradient>
  </defs>
  <circle cx="32" cy="32" r="29" fill="url(#bg)"/>
  <circle cx="32" cy="32" r="23" fill="none" stroke="#bae6fd" stroke-width="4" opacity=".8"/>
  <path d="M22 18h16c7 0 11 4 11 10 0 5-3 8-7 10l7 9H37l-6-8h-1v8h-8V18Zm8 8v7h7c3 0 4-1 4-4 0-2-2-3-4-3h-7Z" fill="url(#mark)"/>
  <path d="M16 45c6 5 14 7 23 5" fill="none" stroke="#22d3ee" stroke-width="5" stroke-linecap="round"/>
</svg>
